<?xml version="1.0" encoding="utf-8"?>
<!-- Generator: Adobe Illustrator 21.1.0, SVG Export Plug-In . SVG Version: 6.00 Build 0)  -->
<svg version="1.1" id="Layer_1" xmlns="http://www.w3.org/2000/svg" xmlns:xlink="http://www.w3.org/1999/xlink" x="0px" y="0px"
	 viewBox="0 0 136.1 136.1" style="enable-background:new 0 0 136.1 136.1;" xml:space="preserve">
<style type="text/css">
	.st0{fill:url(#SVGID_1_);}
	.st1{fill:#FFFFFF;}
</style>
<linearGradient id="SVGID_1_" gradientUnits="userSpaceOnUse" x1="0" y1="68.0318" x2="136.063" y2="68.0318">
	<stop  offset="0" style="stop-color:#229FFF"/>
	<stop  offset="1" style="stop-color:#22D5FF"/>
</linearGradient>
<circle class="st0" cx="68" cy="68" r="68"/>
<g>
	<polygon class="st1" points="102.9,58.7 102.9,52.1 89.2,52.1 89.2,42.6 89.3,42.8 89.3,42.3 61.4,18 61.4,45.2 68,51.9 68,34.9 
		81.5,45.9 81.5,72.6 82,73.1 61.4,55.6 61.4,55.8 49.5,46.1 46.8,44.2 46.9,61.8 31.9,61.8 31.9,68.3 46.9,68.3 46.9,73.2 
		31.9,73.2 31.9,79.7 46.9,79.7 47,91.8 75.8,116 75.8,88.6 68,81.9 68,99.1 54.6,88.1 54.6,61.1 55.4,61.2 75.8,78.3 75.8,78.2 
		79.6,81.5 89.3,89.7 89.2,70.1 102.9,70.1 102.9,63.6 89.2,63.6 89.2,58.7 	"/>
</g>
</svg>
