<?xml version="1.0" encoding="utf-8"?>
<!-- Generator: Adobe Illustrator 21.1.0, SVG Export Plug-In . SVG Version: 6.00 Build 0)  -->
<svg version="1.1"
	 id="svg3406" xmlns:cc="http://creativecommons.org/ns#" xmlns:dc="http://purl.org/dc/elements/1.1/" xmlns:rdf="http://www.w3.org/1999/02/22-rdf-syntax-ns#" xmlns:svg="http://www.w3.org/2000/svg"
	 xmlns="http://www.w3.org/2000/svg" xmlns:xlink="http://www.w3.org/1999/xlink" x="0px" y="0px" viewBox="0 0 540 131"
	 style="enable-background:new 0 0 540 131;" xml:space="preserve">
<style type="text/css">
	.st0{fill:#00BFF3;}
	.st1{fill:#FFFFFF;}
</style>
<path class="st0" d="M25.9,5.3c-3.1-2.9-5.9-4.9-6.3-4.6S19,9.1,19,18.7V36l3.6,4c5.6,6.2,6.2,5.6,5.6-6c-0.3-7.2-0.2-10,0.7-10
	c0.6,0,4.6,3,8.9,6.6l7.7,6.6L46,53.8c0.3,9.2,0.2,17.1-0.2,17.5c-0.4,0.5-4.2-2.2-8.5-6C23.9,53.6,2.2,36,1.1,36
	C0.3,36,0,45.7,0,67.8v31.8l2.7,2c4.4,3.2,31.8,26.3,33.2,28c0.7,0.9,1.7,1.6,2.2,1.6s0.9-8.3,0.9-18.3V94.3l-4.9-4.2
	c-3.2-2.7-5.2-3.8-5.6-3c-0.4,0.6-0.6,5.3-0.5,10.5s-0.2,9.4-0.6,9.4s-4.4-3.1-8.8-6.8l-8-6.8l-0.2-17.2c-0.1-9.5,0.2-17.4,0.7-17.7
	s2.8,1.2,5.2,3.3s10.1,8.8,17.3,14.7s14.9,12.6,17.2,14.7c2.3,2.1,4.7,3.8,5.2,3.8c0.7,0,1-10.6,1-31.3V32.4L44.3,21.5
	C37.3,15.4,29,8.1,25.9,5.3z"/>
<polygon class="st1" points="436.5,50.5 436.2,70.8 436,91.1 440.2,90.8 444.5,90.5 444.5,50.5 "/>
<path class="st1" d="M205.5,50.5l-3.3-0.3c-5.8-0.6-6.3,0.6-6.1,15.2c0.1,13,0.1,13.1-2.5,15.4c-4.5,3.9-10.2,2.7-13.1-2.8
	c-1.2-2.3-1.5-5.8-1.4-14.4c0.1-6.3-0.1-11.9-0.5-12.5s-2.2-1.1-4.1-1.1c-4.5,0-4.8,1.5-4.3,17.8c0.3,10.1,0.8,13.4,2.3,15.8
	c2,3.3,6.4,6.5,10.6,7.5c9.2,2.3,18.3-2.1,21.5-10.4c1.2-3.3,1.5-7.2,1.3-17.2L205.5,50.5z"/>
<path class="st1" d="M162.8,82c-10.4-0.3-29,0.1-29.8,0.5c-1.1,0.7-1.4,4.8-0.3,5.8c0.4,0.4,7.6,0.7,16,0.7H164v-3.5
	C164,83.4,163.5,82,162.8,82z"/>
<path class="st1" d="M132.7,57.4c0.4,0.4,7.5,0.6,15.8,0.4l15.1-0.3v-7l-14.4-0.3c-9.7-0.2-14.8,0.1-15.8,0.9
	C131.9,52.3,131.5,56.2,132.7,57.4L132.7,57.4z"/>
<path class="st1" d="M114,49.9v11.6c0,6.6-0.4,11.6-1,11.6c-0.5,0-4.1-4.3-8-9.5s-7.9-10.4-9-11.5c-2.3-2.3-9-2.8-9-0.8
	c-0.1,2.4-0.1,37.3,0,38.6c0,0.9,1.3,1.2,4.3,1l4.2-0.3l-0.1-11.8c0-6.5,0-11.8,0.2-11.8c1.3,0,3.4,1.4,3.5,2.4
	c0,0.6,3.5,5.6,7.8,11.1c7.5,9.7,7.9,10,11.7,10h3.9v-40L114,49.9z"/>
<path class="st0" d="M26.2,28c-2.1,1.4-5.7,0.6-6.8-1.8c-0.1-0.3-0.2-0.5-0.3-0.8V36l3.6,4c5.6,6.2,6.2,5.6,5.6-6
	c-0.2-4.1-0.2-6.7-0.1-8.3C27.8,26.6,27.1,27.4,26.2,28z"/>
<path class="st1" d="M133.2,72.8c0.9,0.9,5.3,1.1,15.8,1l14.5-0.3v-7l-14.4-0.3c-14.8-0.3-17.1,0.2-17.1,3.7
	C132,70.8,132.6,72.2,133.2,72.8L133.2,72.8z"/>
<path class="st1" d="M483,51c-3.3-1.7-12.7-1.5-17,0.3c-11.2,4.9-16,17.8-10.7,28.7c2.4,4.9,8.5,9.8,13.8,11l0,0
	c5.2,1.2,7.4,1.1,12.6-0.6c9-3,14.3-10.4,14.3-19.9C496,61.7,492,55.6,483,51z M482.5,79.7c-2.6,2.6-4.1,3.3-7.2,3.3
	c-7.5-0.1-12.4-5-12.4-12.6c0-4,0.5-5.5,2.9-8c5.8-6.3,15.7-4.8,19.5,3C487.8,70.4,486.9,75.3,482.5,79.7L482.5,79.7z"/>
<path class="st1" d="M390.5,79.5c-0.9-2.2-2.1-4.9-2.6-6s-2.9-6.7-5.3-12.5l-4.4-10.5l-3.9-0.3c-3.2-0.2-4.2,0.1-5.4,2
	c-2,3.1-15.8,36-15.8,37.6c0,0.8,1.5,1.2,4.1,1.2c3.8,0,4.2-0.2,6-4.5l2-4.5h7.9c8.3,0,11,1.2,11,4.9c0,2.7,2.1,4.1,6.1,4.1
	c4.6,0,5.1-0.7,3.4-4.5C392.8,84.8,391.4,81.7,390.5,79.5z M369.5,73c-0.9-1.4,2.7-10,4.1-10c1.1,0,4.4,7.4,4.4,9.8
	C378,74.3,370.4,74.5,369.5,73z"/>
<path class="st1" d="M395.5,50.5v8l5.9,0.5l5.9,0.5l-0.2,14.7c-0.1,8.1,0.1,15.2,0.4,15.8l0,0c0.3,0.6,2.4,1,4.5,1
	c5,0,5.3-0.7,4.9-17.8l-0.3-13.7l6-0.5l6-0.5v-8C428.6,50.5,395.5,50.5,395.5,50.5z"/>
<path class="st1" d="M340.4,50.2c-3.6,0.3-4.2,0.8-8.9,8c-2.8,4.2-5.4,7.6-6,7.4c-0.5-0.2-2.8-3.3-5.1-7.1c-4.8-7.8-6-8.8-11.2-8.4
	l-3.7,0.3l-0.3,19c-0.2,10.4-0.1,19.5,0.2,20.2l0,0c0.3,0.7,2.2,1.3,4.5,1.3c5,0,5.2-0.8,4.7-14.2c-0.2-5.4,0-9.8,0.4-9.8
	c0.9,0,6.9,8.6,6.9,9.9c0,1,3.9,4.6,4.3,4c1.7-2.2,5.5-8,6.8-10.4c3.1-5.8,3.8-4.3,4.1,8.1l0.3,11.8l3.4,0.3
	c1.9,0.2,3.8-0.1,4.3-0.6c1.2-1.2,1.2-38.2,0-39.4C344.7,50.3,342.5,50,340.4,50.2z"/>
<path class="st1" d="M531.5,50.5v11.3c0,7.4-0.4,11.3-1.1,11.2c-0.6,0-2.6-2.1-4.5-4.8s-5.8-7.8-8.8-11.6c-5.1-6.4-5.6-6.8-9-6.5
	l-3.7,0.3l-0.3,19c-0.2,10.4,0,19.6,0.2,20.3c0.3,0.9,1.8,1.2,4.3,1l3.8-0.3l0.3-11.8c0.2-6.5,0.6-11.7,1-11.7s2.7,2.8,5.2,6.2
	C532.6,91.8,531.8,91,536.8,91h3.2V49.9L531.5,50.5z"/>
<path class="st1" d="M240.2,77.3l3.8-3.7c7.8-7.5,5.2-19.5-4.9-22.5c-4.9-1.5-22.7-1.5-23.6-0.1c-0.5,0.8-0.9,30.8-0.5,39
	c0,0.6,1.8,0.9,4.3,0.8l4.2-0.3l0.1-5c0.1-2.8,0.2-5.6,0.2-6.2c0.1-0.7,1.4-1.2,3.1-1.2c2.6,0,3.7,1,7.7,6.5
	c4.6,6.5,4.7,6.5,9.5,6.5c2.7,0,4.8-0.4,4.8-0.8s-2-3.5-4.4-6.8L240.2,77.3z M235.4,69c-3.6,1.4-10,1.2-11-0.3
	c-0.5-0.7-0.9-3-0.9-5.2v-4l6.7-0.3c6.2-0.3,6.8-0.1,8.3,2.2C240.5,64.4,239.2,67.6,235.4,69z"/>
<path class="st1" d="M260.4,56.2c-4.5,5.1-5.4,7.6-5.4,14.7c0,6,0.4,7.4,2.9,10.8c4,5.5,6.4,7.4,11.3,9l0,0c4.9,1.6,12.7,1.1,16.8-1
	c7.3-3.8,11.5-10.7,11.5-19c0-6.6-1.5-10.4-6-14.8C283.2,47.5,267.8,47.8,260.4,56.2z M281.8,81.6L281.8,81.6
	c-4.7,2.6-10.7,1.4-14.8-3.1c-2-2.1-2.5-3.7-2.5-8.1c0-4.8,0.4-5.9,3.2-8.7c2.8-2.8,3.9-3.2,8.3-3.2c4.6,0,5.4,0.4,8.5,3.7
	c2.8,3,3.4,4.5,3.4,8C288,75,285.5,79.6,281.8,81.6z"/>
</svg>
